<?xml version="1.0" encoding="utf-8" ?>
<svg baseProfile="full" height="108" version="1.1" width="706" xmlns="http://www.w3.org/2000/svg" xmlns:ev="http://www.w3.org/2001/xml-events" xmlns:xlink="http://www.w3.org/1999/xlink"><defs /><rect fill="#0d1117" height="108" width="706" x="0" y="0" /><rect fill="#161b22" height="10" rx="2" ry="2" width="10" x="10" y="10" /><rect fill="#161b22" height="10" rx="2" ry="2" width="10" x="10" y="23" /><rect fill="#161b22" height="10" rx="2" ry="2" width="10" x="10" y="36" /><rect fill="#161b22" height="10" rx="2" ry="2" width="10" x="10" y="49" /><rect fill="#161b22" height="10" rx="2" ry="2" width="10" x="10" y="62" /><rect fill="#161b22" height="10" rx="2" ry="2" width="10" x="10" y="75" /><rect fill="#161b22" height="10" rx="2" ry="2" width="10" x="10" y="88" /><rect fill="#161b22" height="10" rx="2" ry="2" width="10" x="23" y="10" /><rect fill="#161b22" height="10" rx="2" ry="2" width="10" x="23" y="23" /><rect fill="#161b22" height="10" rx="2" ry="2" width="10" x="23" y="36" /><rect fill="#161b22" height="10" rx="2" ry="2" width="10" x="23" y="49" /><rect fill="#161b22" height="10" rx="2" ry="2" width="10" x="23" y="62" /><rect fill="#161b22" height="10" rx="2" ry="2" width="10" x="23" y="75" /><rect fill="#161b22" height="10" rx="2" ry="2" width="10" x="23" y="88" /><rect fill="#161b22" height="10" rx="2" ry="2" width="10" x="36" y="10" /><rect fill="#161b22" height="10" rx="2" ry="2" width="10" x="36" y="23" /><rect fill="#161b22" height="10" rx="2" ry="2" width="10" x="36" y="36" /><rect fill="#161b22" height="10" rx="2" ry="2" width="10" x="36" y="49" /><rect fill="#161b22" height="10" rx="2" ry="2" width="10" x="36" y="62" /><rect fill="#161b22" height="10" rx="2" ry="2" width="10" x="36" y="75" /><rect fill="#161b22" height="10" rx="2" ry="2" width="10" x="36" y="88" /><rect fill="#161b22" height="10" rx="2" ry="2" width="10" x="49" y="10" /><rect fill="#161b22" height="10" rx="2" ry="2" width="10" x="49" y="23" /><rect fill="#161b22" height="10" rx="2" ry="2" width="10" x="49" y="36" /><rect fill="#161b22" height="10" rx="2" ry="2" width="10" x="49" y="49" /><rect fill="#161b22" height="10" rx="2" ry="2" width="10" x="49" y="62" /><rect fill="#161b22" height="10" rx="2" ry="2" width="10" x="49" y="75" /><rect fill="#161b22" height="10" rx="2" ry="2" width="10" x="49" y="88" /><rect fill="#161b22" height="10" rx="2" ry="2" width="10" x="62" y="10" /><rect fill="#161b22" height="10" rx="2" ry="2" width="10" x="62" y="23" /><rect fill="#161b22" height="10" rx="2" ry="2" width="10" x="62" y="36" /><rect fill="#161b22" height="10" rx="2" ry="2" width="10" x="62" y="49" /><rect fill="#161b22" height="10" rx="2" ry="2" width="10" x="62" y="62" /><rect fill="#161b22" height="10" rx="2" ry="2" width="10" x="62" y="75" /><rect fill="#161b22" height="10" rx="2" ry="2" width="10" x="62" y="88" /><rect fill="#161b22" height="10" rx="2" ry="2" width="10" x="75" y="10" /><rect fill="#161b22" height="10" rx="2" ry="2" width="10" x="75" y="23" /><rect fill="#161b22" height="10" rx="2" ry="2" width="10" x="75" y="36" /><rect fill="#161b22" height="10" rx="2" ry="2" width="10" x="75" y="49" /><rect fill="#161b22" height="10" rx="2" ry="2" width="10" x="75" y="62" /><rect fill="#161b22" height="10" rx="2" ry="2" width="10" x="75" y="75" /><rect fill="#161b22" height="10" rx="2" ry="2" width="10" x="75" y="88" /><rect fill="#161b22" height="10" rx="2" ry="2" width="10" x="88" y="10" /><rect fill="#161b22" height="10" rx="2" ry="2" width="10" x="88" y="23" /><rect fill="#161b22" height="10" rx="2" ry="2" width="10" x="88" y="36" /><rect fill="#161b22" height="10" rx="2" ry="2" width="10" x="88" y="49" /><rect fill="#161b22" height="10" rx="2" ry="2" width="10" x="88" y="62" /><rect fill="#161b22" height="10" rx="2" ry="2" width="10" x="88" y="75" /><rect fill="#161b22" height="10" rx="2" ry="2" width="10" x="88" y="88" /><rect fill="#161b22" height="10" rx="2" ry="2" width="10" x="101" y="10" /><rect fill="#161b22" height="10" rx="2" ry="2" width="10" x="101" y="23" /><rect fill="#161b22" height="10" rx="2" ry="2" width="10" x="101" y="36" /><rect fill="#161b22" height="10" rx="2" ry="2" width="10" x="101" y="49" /><rect fill="#161b22" height="10" rx="2" ry="2" width="10" x="101" y="62" /><rect fill="#161b22" height="10" rx="2" ry="2" width="10" x="101" y="75" /><rect fill="#161b22" height="10" rx="2" ry="2" width="10" x="101" y="88" /><rect fill="#161b22" height="10" rx="2" ry="2" width="10" x="114" y="10" /><rect fill="#161b22" height="10" rx="2" ry="2" width="10" x="114" y="23" /><rect fill="#161b22" height="10" rx="2" ry="2" width="10" x="114" y="36" /><rect fill="#161b22" height="10" rx="2" ry="2" width="10" x="114" y="49" /><rect fill="#161b22" height="10" rx="2" ry="2" width="10" x="114" y="62" /><rect fill="#161b22" height="10" rx="2" ry="2" width="10" x="114" y="75" /><rect fill="#161b22" height="10" rx="2" ry="2" width="10" x="114" y="88" /><rect fill="#161b22" height="10" rx="2" ry="2" width="10" x="127" y="10" /><rect fill="#161b22" height="10" rx="2" ry="2" width="10" x="127" y="23" /><rect fill="#161b22" height="10" rx="2" ry="2" width="10" x="127" y="36" /><rect fill="#161b22" height="10" rx="2" ry="2" width="10" x="127" y="49" /><rect fill="#161b22" height="10" rx="2" ry="2" width="10" x="127" y="62" /><rect fill="#161b22" height="10" rx="2" ry="2" width="10" x="127" y="75" /><rect fill="#161b22" height="10" rx="2" ry="2" width="10" x="127" y="88" /><rect fill="#161b22" height="10" rx="2" ry="2" width="10" x="140" y="10" /><rect fill="#161b22" height="10" rx="2" ry="2" width="10" x="140" y="23" /><rect fill="#161b22" height="10" rx="2" ry="2" width="10" x="140" y="36" /><rect fill="#161b22" height="10" rx="2" ry="2" width="10" x="140" y="49" /><rect fill="#161b22" height="10" rx="2" ry="2" width="10" x="140" y="62" /><rect fill="#161b22" height="10" rx="2" ry="2" width="10" x="140" y="75" /><rect fill="#161b22" height="10" rx="2" ry="2" width="10" x="140" y="88" /><rect fill="#161b22" height="10" rx="2" ry="2" width="10" x="153" y="10" /><rect fill="#161b22" height="10" rx="2" ry="2" width="10" x="153" y="23" /><rect fill="#161b22" height="10" rx="2" ry="2" width="10" x="153" y="36" /><rect fill="#161b22" height="10" rx="2" ry="2" width="10" x="153" y="49" /><rect fill="#161b22" height="10" rx="2" ry="2" width="10" x="153" y="62" /><rect fill="#161b22" height="10" rx="2" ry="2" width="10" x="153" y="75" /><rect fill="#161b22" height="10" rx="2" ry="2" width="10" x="153" y="88" /><rect fill="#161b22" height="10" rx="2" ry="2" width="10" x="166" y="10" /><rect fill="#161b22" height="10" rx="2" ry="2" width="10" x="166" y="23" /><rect fill="#161b22" height="10" rx="2" ry="2" width="10" x="166" y="36" /><rect fill="#161b22" height="10" rx="2" ry="2" width="10" x="166" y="49" /><rect fill="#161b22" height="10" rx="2" ry="2" width="10" x="166" y="62" /><rect fill="#161b22" height="10" rx="2" ry="2" width="10" x="166" y="75" /><rect fill="#161b22" height="10" rx="2" ry="2" width="10" x="166" y="88" /><rect fill="#161b22" height="10" rx="2" ry="2" width="10" x="179" y="10" /><rect fill="#161b22" height="10" rx="2" ry="2" width="10" x="179" y="23" /><rect fill="#161b22" height="10" rx="2" ry="2" width="10" x="179" y="36" /><rect fill="#161b22" height="10" rx="2" ry="2" width="10" x="179" y="49" /><rect fill="#161b22" height="10" rx="2" ry="2" width="10" x="179" y="62" /><rect fill="#161b22" height="10" rx="2" ry="2" width="10" x="179" y="75" /><rect fill="#161b22" height="10" rx="2" ry="2" width="10" x="179" y="88" /><rect fill="#161b22" height="10" rx="2" ry="2" width="10" x="192" y="10" /><rect fill="#161b22" height="10" rx="2" ry="2" width="10" x="192" y="23" /><rect fill="#161b22" height="10" rx="2" ry="2" width="10" x="192" y="36" /><rect fill="#161b22" height="10" rx="2" ry="2" width="10" x="192" y="49" /><rect fill="#161b22" height="10" rx="2" ry="2" width="10" x="192" y="62" /><rect fill="#161b22" height="10" rx="2" ry="2" width="10" x="192" y="75" /><rect fill="#161b22" height="10" rx="2" ry="2" width="10" x="192" y="88" /><rect fill="#161b22" height="10" rx="2" ry="2" width="10" x="205" y="10" /><rect fill="#161b22" height="10" rx="2" ry="2" width="10" x="205" y="23" /><rect fill="#161b22" height="10" rx="2" ry="2" width="10" x="205" y="36" /><rect fill="#161b22" height="10" rx="2" ry="2" width="10" x="205" y="49" /><rect fill="#161b22" height="10" rx="2" ry="2" width="10" x="205" y="62" /><rect fill="#161b22" height="10" rx="2" ry="2" width="10" x="205" y="75" /><rect fill="#161b22" height="10" rx="2" ry="2" width="10" x="205" y="88" /><rect fill="#161b22" height="10" rx="2" ry="2" width="10" x="218" y="10" /><rect fill="#161b22" height="10" rx="2" ry="2" width="10" x="218" y="23" /><rect fill="#161b22" height="10" rx="2" ry="2" width="10" x="218" y="36" /><rect fill="#161b22" height="10" rx="2" ry="2" width="10" x="218" y="49" /><rect fill="#161b22" height="10" rx="2" ry="2" width="10" x="218" y="62" /><rect fill="#161b22" height="10" rx="2" ry="2" width="10" x="218" y="75" /><rect fill="#161b22" height="10" rx="2" ry="2" width="10" x="218" y="88" /><rect fill="#161b22" height="10" rx="2" ry="2" width="10" x="231" y="10" /><rect fill="#161b22" height="10" rx="2" ry="2" width="10" x="231" y="23" /><rect fill="#161b22" height="10" rx="2" ry="2" width="10" x="231" y="36" /><rect fill="#161b22" height="10" rx="2" ry="2" width="10" x="231" y="49" /><rect fill="#161b22" height="10" rx="2" ry="2" width="10" x="231" y="62" /><rect fill="#161b22" height="10" rx="2" ry="2" width="10" x="231" y="75" /><rect fill="#161b22" height="10" rx="2" ry="2" width="10" x="231" y="88" /><rect fill="#161b22" height="10" rx="2" ry="2" width="10" x="244" y="10" /><rect fill="#161b22" height="10" rx="2" ry="2" width="10" x="244" y="23" /><rect fill="#161b22" height="10" rx="2" ry="2" width="10" x="244" y="36" /><rect fill="#161b22" height="10" rx="2" ry="2" width="10" x="244" y="49" /><rect fill="#161b22" height="10" rx="2" ry="2" width="10" x="244" y="62" /><rect fill="#161b22" height="10" rx="2" ry="2" width="10" x="244" y="75" /><rect fill="#161b22" height="10" rx="2" ry="2" width="10" x="244" y="88" /><rect fill="#161b22" height="10" rx="2" ry="2" width="10" x="257" y="10" /><rect fill="#161b22" height="10" rx="2" ry="2" width="10" x="257" y="23" /><rect fill="#161b22" height="10" rx="2" ry="2" width="10" x="257" y="36" /><rect fill="#161b22" height="10" rx="2" ry="2" width="10" x="257" y="49" /><rect fill="#161b22" height="10" rx="2" ry="2" width="10" x="257" y="62" /><rect fill="#161b22" height="10" rx="2" ry="2" width="10" x="257" y="75" /><rect fill="#161b22" height="10" rx="2" ry="2" width="10" x="257" y="88" /><rect fill="#161b22" height="10" rx="2" ry="2" width="10" x="270" y="10" /><rect fill="#161b22" height="10" rx="2" ry="2" width="10" x="270" y="23" /><rect fill="#161b22" height="10" rx="2" ry="2" width="10" x="270" y="36" /><rect fill="#161b22" height="10" rx="2" ry="2" width="10" x="270" y="49" /><rect fill="#161b22" height="10" rx="2" ry="2" width="10" x="270" y="62" /><rect fill="#161b22" height="10" rx="2" ry="2" width="10" x="270" y="75" /><rect fill="#161b22" height="10" rx="2" ry="2" width="10" x="270" y="88" /><rect fill="#161b22" height="10" rx="2" ry="2" width="10" x="283" y="10" /><rect fill="#161b22" height="10" rx="2" ry="2" width="10" x="283" y="23" /><rect fill="#161b22" height="10" rx="2" ry="2" width="10" x="283" y="36" /><rect fill="#161b22" height="10" rx="2" ry="2" width="10" x="283" y="49" /><rect fill="#161b22" height="10" rx="2" ry="2" width="10" x="283" y="62" /><rect fill="#161b22" height="10" rx="2" ry="2" width="10" x="283" y="75" /><rect fill="#161b22" height="10" rx="2" ry="2" width="10" x="283" y="88" /><rect fill="#161b22" height="10" rx="2" ry="2" width="10" x="296" y="10" /><rect fill="#161b22" height="10" rx="2" ry="2" width="10" x="296" y="23" /><rect fill="#161b22" height="10" rx="2" ry="2" width="10" x="296" y="36" /><rect fill="#161b22" height="10" rx="2" ry="2" width="10" x="296" y="49" /><rect fill="#161b22" height="10" rx="2" ry="2" width="10" x="296" y="62" /><rect fill="#161b22" height="10" rx="2" ry="2" width="10" x="296" y="75" /><rect fill="#161b22" height="10" rx="2" ry="2" width="10" x="296" y="88" /><rect fill="#161b22" height="10" rx="2" ry="2" width="10" x="309" y="10" /><rect fill="#161b22" height="10" rx="2" ry="2" width="10" x="309" y="23" /><rect fill="#161b22" height="10" rx="2" ry="2" width="10" x="309" y="36" /><rect fill="#161b22" height="10" rx="2" ry="2" width="10" x="309" y="49" /><rect fill="#161b22" height="10" rx="2" ry="2" width="10" x="309" y="62" /><rect fill="#161b22" height="10" rx="2" ry="2" width="10" x="309" y="75" /><rect fill="#161b22" height="10" rx="2" ry="2" width="10" x="309" y="88" /><rect fill="#161b22" height="10" rx="2" ry="2" width="10" x="322" y="10" /><rect fill="#161b22" height="10" rx="2" ry="2" width="10" x="322" y="23" /><rect fill="#161b22" height="10" rx="2" ry="2" width="10" x="322" y="36" /><rect fill="#161b22" height="10" rx="2" ry="2" width="10" x="322" y="49" /><rect fill="#161b22" height="10" rx="2" ry="2" width="10" x="322" y="62" /><rect fill="#161b22" height="10" rx="2" ry="2" width="10" x="322" y="75" /><rect fill="#161b22" height="10" rx="2" ry="2" width="10" x="322" y="88" /><rect fill="#161b22" height="10" rx="2" ry="2" width="10" x="335" y="10" /><rect fill="#161b22" height="10" rx="2" ry="2" width="10" x="335" y="23" /><rect fill="#161b22" height="10" rx="2" ry="2" width="10" x="335" y="36" /><rect fill="#161b22" height="10" rx="2" ry="2" width="10" x="335" y="49" /><rect fill="#161b22" height="10" rx="2" ry="2" width="10" x="335" y="62" /><rect fill="#161b22" height="10" rx="2" ry="2" width="10" x="335" y="75" /><rect fill="#161b22" height="10" rx="2" ry="2" width="10" x="335" y="88" /><rect fill="#161b22" height="10" rx="2" ry="2" width="10" x="348" y="10" /><rect fill="#161b22" height="10" rx="2" ry="2" width="10" x="348" y="23" /><rect fill="#161b22" height="10" rx="2" ry="2" width="10" x="348" y="36" /><rect fill="#161b22" height="10" rx="2" ry="2" width="10" x="348" y="49" /><rect fill="#161b22" height="10" rx="2" ry="2" width="10" x="348" y="62" /><rect fill="#161b22" height="10" rx="2" ry="2" width="10" x="348" y="75" /><rect fill="#161b22" height="10" rx="2" ry="2" width="10" x="348" y="88" /><rect fill="#161b22" height="10" rx="2" ry="2" width="10" x="361" y="10" /><rect fill="#161b22" height="10" rx="2" ry="2" width="10" x="361" y="23" /><rect fill="#161b22" height="10" rx="2" ry="2" width="10" x="361" y="36" /><rect fill="#161b22" height="10" rx="2" ry="2" width="10" x="361" y="49" /><rect fill="#161b22" height="10" rx="2" ry="2" width="10" x="361" y="62" /><rect fill="#161b22" height="10" rx="2" ry="2" width="10" x="361" y="75" /><rect fill="#161b22" height="10" rx="2" ry="2" width="10" x="361" y="88" /><rect fill="#161b22" height="10" rx="2" ry="2" width="10" x="374" y="10" /><rect fill="#161b22" height="10" rx="2" ry="2" width="10" x="374" y="23" /><rect fill="#161b22" height="10" rx="2" ry="2" width="10" x="374" y="36" /><rect fill="#161b22" height="10" rx="2" ry="2" width="10" x="374" y="49" /><rect fill="#161b22" height="10" rx="2" ry="2" width="10" x="374" y="62" /><rect fill="#161b22" height="10" rx="2" ry="2" width="10" x="374" y="75" /><rect fill="#161b22" height="10" rx="2" ry="2" width="10" x="374" y="88" /><rect fill="#161b22" height="10" rx="2" ry="2" width="10" x="387" y="10" /><rect fill="#161b22" height="10" rx="2" ry="2" width="10" x="387" y="23" /><rect fill="#161b22" height="10" rx="2" ry="2" width="10" x="387" y="36" /><rect fill="#161b22" height="10" rx="2" ry="2" width="10" x="387" y="49" /><rect fill="#161b22" height="10" rx="2" ry="2" width="10" x="387" y="62" /><rect fill="#9f1239" height="10" rx="2" ry="2" width="10" x="387" y="75"><animate attributeName="fill" begin="0s" dur="148s" repeatCount="indefinite" values="#9f1239;#9a3412;#1e40af;#7a5c00;#6d28d9;#4d7c0f;#5c3a21;#92400e;#0f766e;#15803d;#8b0a50;#0f766e;#0369a1;#6d28d9;#047857;#1f6feb;#3730a3;#5b21b6;#b45309;#7a0c52;#8c131a;#804000;#9e6a03;#991b1b;#0369a1;#006d32;#701a75;#a40e26;#5c0000;#5d4037;#a21caf;#854d0e;#5e008a;#4d6600;#166534;#0369a1;#9e1c63" /><animate attributeName="width" begin="1.7000000000000002s" dur="2s" repeatCount="indefinite" values="10;4;10" /><animate attributeName="height" begin="1.7000000000000002s" dur="2s" repeatCount="indefinite" values="10;4;10" /><animate attributeName="x" begin="1.7000000000000002s" dur="2s" repeatCount="indefinite" values="387;390.0;387" /><animate attributeName="y" begin="1.7000000000000002s" dur="2s" repeatCount="indefinite" values="75;78.0;75" /></rect><rect fill="#161b22" height="10" rx="2" ry="2" width="10" x="387" y="88" /><rect fill="#161b22" height="10" rx="2" ry="2" width="10" x="400" y="10" /><rect fill="#161b22" height="10" rx="2" ry="2" width="10" x="400" y="23" /><rect fill="#161b22" height="10" rx="2" ry="2" width="10" x="400" y="36" /><rect fill="#9f1239" height="10" rx="2" ry="2" width="10" x="400" y="49"><animate attributeName="fill" begin="0s" dur="148s" repeatCount="indefinite" values="#9f1239;#9a3412;#1e40af;#7a5c00;#6d28d9;#4d7c0f;#5c3a21;#92400e;#0f766e;#15803d;#8b0a50;#0f766e;#0369a1;#6d28d9;#047857;#1f6feb;#3730a3;#5b21b6;#b45309;#7a0c52;#8c131a;#804000;#9e6a03;#991b1b;#0369a1;#006d32;#701a75;#a40e26;#5c0000;#5d4037;#a21caf;#854d0e;#5e008a;#4d6600;#166534;#0369a1;#9e1c63" /><animate attributeName="width" begin="1.6500000000000001s" dur="2s" repeatCount="indefinite" values="10;4;10" /><animate attributeName="height" begin="1.6500000000000001s" dur="2s" repeatCount="indefinite" values="10;4;10" /><animate attributeName="x" begin="1.6500000000000001s" dur="2s" repeatCount="indefinite" values="400;403.0;400" /><animate attributeName="y" begin="1.6500000000000001s" dur="2s" repeatCount="indefinite" values="49;52.0;49" /></rect><rect fill="#161b22" height="10" rx="2" ry="2" width="10" x="400" y="62" /><rect fill="#161b22" height="10" rx="2" ry="2" width="10" x="400" y="75" /><rect fill="#161b22" height="10" rx="2" ry="2" width="10" x="400" y="88" /><rect fill="#161b22" height="10" rx="2" ry="2" width="10" x="413" y="10" /><rect fill="#161b22" height="10" rx="2" ry="2" width="10" x="413" y="23" /><rect fill="#161b22" height="10" rx="2" ry="2" width="10" x="413" y="36" /><rect fill="#161b22" height="10" rx="2" ry="2" width="10" x="413" y="49" /><rect fill="#161b22" height="10" rx="2" ry="2" width="10" x="413" y="62" /><rect fill="#161b22" height="10" rx="2" ry="2" width="10" x="413" y="75" /><rect fill="#161b22" height="10" rx="2" ry="2" width="10" x="413" y="88" /><rect fill="#161b22" height="10" rx="2" ry="2" width="10" x="426" y="10" /><rect fill="#4c0519" height="10" rx="2" ry="2" width="10" x="426" y="23"><animate attributeName="fill" begin="0s" dur="148s" repeatCount="indefinite" values="#4c0519;#431407;#172554;#3a2a00;#4c1d95;#1a2e05;#2e1a0b;#451a03;#0b3d3b;#052e16;#3d0024;#042f2e;#083344;#2e1065;#022c22;#0d419d;#1e1b4b;#2e1065;#7c2d12;#33001f;#380005;#331800;#5c4400;#450a0a;#082f49;#0e4429;#4a044e;#67060c;#2e0000;#3e2723;#4a044e;#422006;#220033;#1a2600;#052e16;#082f49;#5e1035" /><animate attributeName="width" begin="1.6500000000000001s" dur="2s" repeatCount="indefinite" values="10;4;10" /><animate attributeName="height" begin="1.6500000000000001s" dur="2s" repeatCount="indefinite" values="10;4;10" /><animate attributeName="x" begin="1.6500000000000001s" dur="2s" repeatCount="indefinite" values="426;429.0;426" /><animate attributeName="y" begin="1.6500000000000001s" dur="2s" repeatCount="indefinite" values="23;26.0;23" /></rect><rect fill="#161b22" height="10" rx="2" ry="2" width="10" x="426" y="36" /><rect fill="#161b22" height="10" rx="2" ry="2" width="10" x="426" y="49" /><rect fill="#161b22" height="10" rx="2" ry="2" width="10" x="426" y="62" /><rect fill="#161b22" height="10" rx="2" ry="2" width="10" x="426" y="75" /><rect fill="#161b22" height="10" rx="2" ry="2" width="10" x="426" y="88" /><rect fill="#161b22" height="10" rx="2" ry="2" width="10" x="439" y="10" /><rect fill="#161b22" height="10" rx="2" ry="2" width="10" x="439" y="23" /><rect fill="#161b22" height="10" rx="2" ry="2" width="10" x="439" y="36" /><rect fill="#161b22" height="10" rx="2" ry="2" width="10" x="439" y="49" /><rect fill="#161b22" height="10" rx="2" ry="2" width="10" x="439" y="62" /><rect fill="#161b22" height="10" rx="2" ry="2" width="10" x="439" y="75" /><rect fill="#161b22" height="10" rx="2" ry="2" width="10" x="439" y="88" /><rect fill="#161b22" height="10" rx="2" ry="2" width="10" x="452" y="10" /><rect fill="#161b22" height="10" rx="2" ry="2" width="10" x="452" y="23" /><rect fill="#161b22" height="10" rx="2" ry="2" width="10" x="452" y="36" /><rect fill="#161b22" height="10" rx="2" ry="2" width="10" x="452" y="49" /><rect fill="#161b22" height="10" rx="2" ry="2" width="10" x="452" y="62" /><rect fill="#161b22" height="10" rx="2" ry="2" width="10" x="452" y="75" /><rect fill="#161b22" height="10" rx="2" ry="2" width="10" x="452" y="88" /><rect fill="#161b22" height="10" rx="2" ry="2" width="10" x="465" y="10" /><rect fill="#161b22" height="10" rx="2" ry="2" width="10" x="465" y="23" /><rect fill="#161b22" height="10" rx="2" ry="2" width="10" x="465" y="36" /><rect fill="#161b22" height="10" rx="2" ry="2" width="10" x="465" y="49" /><rect fill="#161b22" height="10" rx="2" ry="2" width="10" x="465" y="62" /><rect fill="#161b22" height="10" rx="2" ry="2" width="10" x="465" y="75" /><rect fill="#161b22" height="10" rx="2" ry="2" width="10" x="465" y="88" /><rect fill="#161b22" height="10" rx="2" ry="2" width="10" x="478" y="10" /><rect fill="#161b22" height="10" rx="2" ry="2" width="10" x="478" y="23" /><rect fill="#161b22" height="10" rx="2" ry="2" width="10" x="478" y="36" /><rect fill="#161b22" height="10" rx="2" ry="2" width="10" x="478" y="49" /><rect fill="#161b22" height="10" rx="2" ry="2" width="10" x="478" y="62" /><rect fill="#161b22" height="10" rx="2" ry="2" width="10" x="478" y="75" /><rect fill="#161b22" height="10" rx="2" ry="2" width="10" x="478" y="88" /><rect fill="#161b22" height="10" rx="2" ry="2" width="10" x="491" y="10" /><rect fill="#161b22" height="10" rx="2" ry="2" width="10" x="491" y="23" /><rect fill="#161b22" height="10" rx="2" ry="2" width="10" x="491" y="36" /><rect fill="#161b22" height="10" rx="2" ry="2" width="10" x="491" y="49" /><rect fill="#161b22" height="10" rx="2" ry="2" width="10" x="491" y="62" /><rect fill="#161b22" height="10" rx="2" ry="2" width="10" x="491" y="75" /><rect fill="#161b22" height="10" rx="2" ry="2" width="10" x="491" y="88" /><rect fill="#161b22" height="10" rx="2" ry="2" width="10" x="504" y="10" /><rect fill="#161b22" height="10" rx="2" ry="2" width="10" x="504" y="23" /><rect fill="#161b22" height="10" rx="2" ry="2" width="10" x="504" y="36" /><rect fill="#9f1239" height="10" rx="2" ry="2" width="10" x="504" y="49"><animate attributeName="fill" begin="0s" dur="148s" repeatCount="indefinite" values="#9f1239;#9a3412;#1e40af;#7a5c00;#6d28d9;#4d7c0f;#5c3a21;#92400e;#0f766e;#15803d;#8b0a50;#0f766e;#0369a1;#6d28d9;#047857;#1f6feb;#3730a3;#5b21b6;#b45309;#7a0c52;#8c131a;#804000;#9e6a03;#991b1b;#0369a1;#006d32;#701a75;#a40e26;#5c0000;#5d4037;#a21caf;#854d0e;#5e008a;#4d6600;#166534;#0369a1;#9e1c63" /><animate attributeName="width" begin="2.0500000000000003s" dur="2s" repeatCount="indefinite" values="10;4;10" /><animate attributeName="height" begin="2.0500000000000003s" dur="2s" repeatCount="indefinite" values="10;4;10" /><animate attributeName="x" begin="2.0500000000000003s" dur="2s" repeatCount="indefinite" values="504;507.0;504" /><animate attributeName="y" begin="2.0500000000000003s" dur="2s" repeatCount="indefinite" values="49;52.0;49" /></rect><rect fill="#161b22" height="10" rx="2" ry="2" width="10" x="504" y="62" /><rect fill="#161b22" height="10" rx="2" ry="2" width="10" x="504" y="75" /><rect fill="#161b22" height="10" rx="2" ry="2" width="10" x="504" y="88" /><rect fill="#161b22" height="10" rx="2" ry="2" width="10" x="517" y="10" /><rect fill="#161b22" height="10" rx="2" ry="2" width="10" x="517" y="23" /><rect fill="#161b22" height="10" rx="2" ry="2" width="10" x="517" y="36" /><rect fill="#161b22" height="10" rx="2" ry="2" width="10" x="517" y="49" /><rect fill="#161b22" height="10" rx="2" ry="2" width="10" x="517" y="62" /><rect fill="#161b22" height="10" rx="2" ry="2" width="10" x="517" y="75" /><rect fill="#161b22" height="10" rx="2" ry="2" width="10" x="517" y="88" /><rect fill="#161b22" height="10" rx="2" ry="2" width="10" x="530" y="10" /><rect fill="#161b22" height="10" rx="2" ry="2" width="10" x="530" y="23" /><rect fill="#161b22" height="10" rx="2" ry="2" width="10" x="530" y="36" /><rect fill="#161b22" height="10" rx="2" ry="2" width="10" x="530" y="49" /><rect fill="#161b22" height="10" rx="2" ry="2" width="10" x="530" y="62" /><rect fill="#161b22" height="10" rx="2" ry="2" width="10" x="530" y="75" /><rect fill="#4c0519" height="10" rx="2" ry="2" width="10" x="530" y="88"><animate attributeName="fill" begin="0s" dur="148s" repeatCount="indefinite" values="#4c0519;#431407;#172554;#3a2a00;#4c1d95;#1a2e05;#2e1a0b;#451a03;#0b3d3b;#052e16;#3d0024;#042f2e;#083344;#2e1065;#022c22;#0d419d;#1e1b4b;#2e1065;#7c2d12;#33001f;#380005;#331800;#5c4400;#450a0a;#082f49;#0e4429;#4a044e;#67060c;#2e0000;#3e2723;#4a044e;#422006;#220033;#1a2600;#052e16;#082f49;#5e1035" /><animate attributeName="width" begin="2.3000000000000003s" dur="2s" repeatCount="indefinite" values="10;4;10" /><animate attributeName="height" begin="2.3000000000000003s" dur="2s" repeatCount="indefinite" values="10;4;10" /><animate attributeName="x" begin="2.3000000000000003s" dur="2s" repeatCount="indefinite" values="530;533.0;530" /><animate attributeName="y" begin="2.3000000000000003s" dur="2s" repeatCount="indefinite" values="88;91.0;88" /></rect><rect fill="#161b22" height="10" rx="2" ry="2" width="10" x="543" y="10" /><rect fill="#161b22" height="10" rx="2" ry="2" width="10" x="543" y="23" /><rect fill="#161b22" height="10" rx="2" ry="2" width="10" x="543" y="36" /><rect fill="#161b22" height="10" rx="2" ry="2" width="10" x="543" y="49" /><rect fill="#161b22" height="10" rx="2" ry="2" width="10" x="543" y="62" /><rect fill="#161b22" height="10" rx="2" ry="2" width="10" x="543" y="75" /><rect fill="#161b22" height="10" rx="2" ry="2" width="10" x="543" y="88" /><rect fill="#161b22" height="10" rx="2" ry="2" width="10" x="556" y="10" /><rect fill="#161b22" height="10" rx="2" ry="2" width="10" x="556" y="23" /><rect fill="#161b22" height="10" rx="2" ry="2" width="10" x="556" y="36" /><rect fill="#161b22" height="10" rx="2" ry="2" width="10" x="556" y="49" /><rect fill="#161b22" height="10" rx="2" ry="2" width="10" x="556" y="62" /><rect fill="#161b22" height="10" rx="2" ry="2" width="10" x="556" y="75" /><rect fill="#161b22" height="10" rx="2" ry="2" width="10" x="556" y="88" /><rect fill="#161b22" height="10" rx="2" ry="2" width="10" x="569" y="10" /><rect fill="#161b22" height="10" rx="2" ry="2" width="10" x="569" y="23" /><rect fill="#161b22" height="10" rx="2" ry="2" width="10" x="569" y="36" /><rect fill="#161b22" height="10" rx="2" ry="2" width="10" x="569" y="49" /><rect fill="#161b22" height="10" rx="2" ry="2" width="10" x="569" y="62" /><rect fill="#161b22" height="10" rx="2" ry="2" width="10" x="569" y="75" /><rect fill="#161b22" height="10" rx="2" ry="2" width="10" x="569" y="88" /><rect fill="#161b22" height="10" rx="2" ry="2" width="10" x="582" y="10" /><rect fill="#161b22" height="10" rx="2" ry="2" width="10" x="582" y="23" /><rect fill="#161b22" height="10" rx="2" ry="2" width="10" x="582" y="36" /><rect fill="#161b22" height="10" rx="2" ry="2" width="10" x="582" y="49" /><rect fill="#161b22" height="10" rx="2" ry="2" width="10" x="582" y="62" /><rect fill="#161b22" height="10" rx="2" ry="2" width="10" x="582" y="75" /><rect fill="#161b22" height="10" rx="2" ry="2" width="10" x="582" y="88" /><rect fill="#161b22" height="10" rx="2" ry="2" width="10" x="595" y="10" /><rect fill="#161b22" height="10" rx="2" ry="2" width="10" x="595" y="23" /><rect fill="#161b22" height="10" rx="2" ry="2" width="10" x="595" y="36" /><rect fill="#161b22" height="10" rx="2" ry="2" width="10" x="595" y="49" /><rect fill="#161b22" height="10" rx="2" ry="2" width="10" x="595" y="62" /><rect fill="#161b22" height="10" rx="2" ry="2" width="10" x="595" y="75" /><rect fill="#161b22" height="10" rx="2" ry="2" width="10" x="595" y="88" /><rect fill="#161b22" height="10" rx="2" ry="2" width="10" x="608" y="10" /><rect fill="#161b22" height="10" rx="2" ry="2" width="10" x="608" y="23" /><rect fill="#161b22" height="10" rx="2" ry="2" width="10" x="608" y="36" /><rect fill="#161b22" height="10" rx="2" ry="2" width="10" x="608" y="49" /><rect fill="#161b22" height="10" rx="2" ry="2" width="10" x="608" y="62" /><rect fill="#161b22" height="10" rx="2" ry="2" width="10" x="608" y="75" /><rect fill="#4c0519" height="10" rx="2" ry="2" width="10" x="608" y="88"><animate attributeName="fill" begin="0s" dur="148s" repeatCount="indefinite" values="#4c0519;#431407;#172554;#3a2a00;#4c1d95;#1a2e05;#2e1a0b;#451a03;#0b3d3b;#052e16;#3d0024;#042f2e;#083344;#2e1065;#022c22;#0d419d;#1e1b4b;#2e1065;#7c2d12;#33001f;#380005;#331800;#5c4400;#450a0a;#082f49;#0e4429;#4a044e;#67060c;#2e0000;#3e2723;#4a044e;#422006;#220033;#1a2600;#052e16;#082f49;#5e1035" /><animate attributeName="width" begin="2.6s" dur="2s" repeatCount="indefinite" values="10;4;10" /><animate attributeName="height" begin="2.6s" dur="2s" repeatCount="indefinite" values="10;4;10" /><animate attributeName="x" begin="2.6s" dur="2s" repeatCount="indefinite" values="608;611.0;608" /><animate attributeName="y" begin="2.6s" dur="2s" repeatCount="indefinite" values="88;91.0;88" /></rect><rect fill="#4c0519" height="10" rx="2" ry="2" width="10" x="621" y="10"><animate attributeName="fill" begin="0s" dur="148s" repeatCount="indefinite" values="#4c0519;#431407;#172554;#3a2a00;#4c1d95;#1a2e05;#2e1a0b;#451a03;#0b3d3b;#052e16;#3d0024;#042f2e;#083344;#2e1065;#022c22;#0d419d;#1e1b4b;#2e1065;#7c2d12;#33001f;#380005;#331800;#5c4400;#450a0a;#082f49;#0e4429;#4a044e;#67060c;#2e0000;#3e2723;#4a044e;#422006;#220033;#1a2600;#052e16;#082f49;#5e1035" /><animate attributeName="width" begin="2.35s" dur="2s" repeatCount="indefinite" values="10;4;10" /><animate attributeName="height" begin="2.35s" dur="2s" repeatCount="indefinite" values="10;4;10" /><animate attributeName="x" begin="2.35s" dur="2s" repeatCount="indefinite" values="621;624.0;621" /><animate attributeName="y" begin="2.35s" dur="2s" repeatCount="indefinite" values="10;13.0;10" /></rect><rect fill="#161b22" height="10" rx="2" ry="2" width="10" x="621" y="23" /><rect fill="#161b22" height="10" rx="2" ry="2" width="10" x="621" y="36" /><rect fill="#161b22" height="10" rx="2" ry="2" width="10" x="621" y="49" /><rect fill="#161b22" height="10" rx="2" ry="2" width="10" x="621" y="62" /><rect fill="#161b22" height="10" rx="2" ry="2" width="10" x="621" y="75" /><rect fill="#161b22" height="10" rx="2" ry="2" width="10" x="621" y="88" /><rect fill="#9f1239" height="10" rx="2" ry="2" width="10" x="634" y="10"><animate attributeName="fill" begin="0s" dur="148s" repeatCount="indefinite" values="#9f1239;#9a3412;#1e40af;#7a5c00;#6d28d9;#4d7c0f;#5c3a21;#92400e;#0f766e;#15803d;#8b0a50;#0f766e;#0369a1;#6d28d9;#047857;#1f6feb;#3730a3;#5b21b6;#b45309;#7a0c52;#8c131a;#804000;#9e6a03;#991b1b;#0369a1;#006d32;#701a75;#a40e26;#5c0000;#5d4037;#a21caf;#854d0e;#5e008a;#4d6600;#166534;#0369a1;#9e1c63" /><animate attributeName="width" begin="2.4000000000000004s" dur="2s" repeatCount="indefinite" values="10;4;10" /><animate attributeName="height" begin="2.4000000000000004s" dur="2s" repeatCount="indefinite" values="10;4;10" /><animate attributeName="x" begin="2.4000000000000004s" dur="2s" repeatCount="indefinite" values="634;637.0;634" /><animate attributeName="y" begin="2.4000000000000004s" dur="2s" repeatCount="indefinite" values="10;13.0;10" /></rect><rect fill="#161b22" height="10" rx="2" ry="2" width="10" x="634" y="23" /><rect fill="#4c0519" height="10" rx="2" ry="2" width="10" x="634" y="36"><animate attributeName="fill" begin="0s" dur="148s" repeatCount="indefinite" values="#4c0519;#431407;#172554;#3a2a00;#4c1d95;#1a2e05;#2e1a0b;#451a03;#0b3d3b;#052e16;#3d0024;#042f2e;#083344;#2e1065;#022c22;#0d419d;#1e1b4b;#2e1065;#7c2d12;#33001f;#380005;#331800;#5c4400;#450a0a;#082f49;#0e4429;#4a044e;#67060c;#2e0000;#3e2723;#4a044e;#422006;#220033;#1a2600;#052e16;#082f49;#5e1035" /><animate attributeName="width" begin="2.5s" dur="2s" repeatCount="indefinite" values="10;4;10" /><animate attributeName="height" begin="2.5s" dur="2s" repeatCount="indefinite" values="10;4;10" /><animate attributeName="x" begin="2.5s" dur="2s" repeatCount="indefinite" values="634;637.0;634" /><animate attributeName="y" begin="2.5s" dur="2s" repeatCount="indefinite" values="36;39.0;36" /></rect><rect fill="#161b22" height="10" rx="2" ry="2" width="10" x="634" y="49" /><rect fill="#161b22" height="10" rx="2" ry="2" width="10" x="634" y="62" /><rect fill="#4c0519" height="10" rx="2" ry="2" width="10" x="634" y="75"><animate attributeName="fill" begin="0s" dur="148s" repeatCount="indefinite" values="#4c0519;#431407;#172554;#3a2a00;#4c1d95;#1a2e05;#2e1a0b;#451a03;#0b3d3b;#052e16;#3d0024;#042f2e;#083344;#2e1065;#022c22;#0d419d;#1e1b4b;#2e1065;#7c2d12;#33001f;#380005;#331800;#5c4400;#450a0a;#082f49;#0e4429;#4a044e;#67060c;#2e0000;#3e2723;#4a044e;#422006;#220033;#1a2600;#052e16;#082f49;#5e1035" /><animate attributeName="width" begin="2.6500000000000004s" dur="2s" repeatCount="indefinite" values="10;4;10" /><animate attributeName="height" begin="2.6500000000000004s" dur="2s" repeatCount="indefinite" values="10;4;10" /><animate attributeName="x" begin="2.6500000000000004s" dur="2s" repeatCount="indefinite" values="634;637.0;634" /><animate attributeName="y" begin="2.6500000000000004s" dur="2s" repeatCount="indefinite" values="75;78.0;75" /></rect><rect fill="#fda4af" height="10" rx="2" ry="2" width="10" x="634" y="88"><animate attributeName="fill" begin="0s" dur="148s" repeatCount="indefinite" values="#fda4af;#fdba74;#93c5fd;#e1ad01;#c084fc;#bef264;#d2691e;#fcd34d;#5eead4;#86efac;#ff69b4;#99f6e4;#7dd3fc;#ddd6fe;#6ee7b7;#79c0ff;#a5b4fc;#c4b5fd;#ffa657;#ff1493;#ff6347;#ff8c00;#f2cc60;#f87171;#7dd3fc;#39d353;#e879f9;#ff7b72;#b03060;#bcaaa4;#f0abfc;#fde047;#d6a9ed;#bfff00;#86efac;#bae6fd;#ff7eb6" /><animate attributeName="width" begin="2.7s" dur="2s" repeatCount="indefinite" values="10;4;10" /><animate attributeName="height" begin="2.7s" dur="2s" repeatCount="indefinite" values="10;4;10" /><animate attributeName="x" begin="2.7s" dur="2s" repeatCount="indefinite" values="634;637.0;634" /><animate attributeName="y" begin="2.7s" dur="2s" repeatCount="indefinite" values="88;91.0;88" /></rect><rect fill="#4c0519" height="10" rx="2" ry="2" width="10" x="647" y="10"><animate attributeName="fill" begin="0s" dur="148s" repeatCount="indefinite" values="#4c0519;#431407;#172554;#3a2a00;#4c1d95;#1a2e05;#2e1a0b;#451a03;#0b3d3b;#052e16;#3d0024;#042f2e;#083344;#2e1065;#022c22;#0d419d;#1e1b4b;#2e1065;#7c2d12;#33001f;#380005;#331800;#5c4400;#450a0a;#082f49;#0e4429;#4a044e;#67060c;#2e0000;#3e2723;#4a044e;#422006;#220033;#1a2600;#052e16;#082f49;#5e1035" /><animate attributeName="width" begin="2.45s" dur="2s" repeatCount="indefinite" values="10;4;10" /><animate attributeName="height" begin="2.45s" dur="2s" repeatCount="indefinite" values="10;4;10" /><animate attributeName="x" begin="2.45s" dur="2s" repeatCount="indefinite" values="647;650.0;647" /><animate attributeName="y" begin="2.45s" dur="2s" repeatCount="indefinite" values="10;13.0;10" /></rect><rect fill="#4c0519" height="10" rx="2" ry="2" width="10" x="647" y="23"><animate attributeName="fill" begin="0s" dur="148s" repeatCount="indefinite" values="#4c0519;#431407;#172554;#3a2a00;#4c1d95;#1a2e05;#2e1a0b;#451a03;#0b3d3b;#052e16;#3d0024;#042f2e;#083344;#2e1065;#022c22;#0d419d;#1e1b4b;#2e1065;#7c2d12;#33001f;#380005;#331800;#5c4400;#450a0a;#082f49;#0e4429;#4a044e;#67060c;#2e0000;#3e2723;#4a044e;#422006;#220033;#1a2600;#052e16;#082f49;#5e1035" /><animate attributeName="width" begin="2.5s" dur="2s" repeatCount="indefinite" values="10;4;10" /><animate attributeName="height" begin="2.5s" dur="2s" repeatCount="indefinite" values="10;4;10" /><animate attributeName="x" begin="2.5s" dur="2s" repeatCount="indefinite" values="647;650.0;647" /><animate attributeName="y" begin="2.5s" dur="2s" repeatCount="indefinite" values="23;26.0;23" /></rect><rect fill="#4c0519" height="10" rx="2" ry="2" width="10" x="647" y="36"><animate attributeName="fill" begin="0s" dur="148s" repeatCount="indefinite" values="#4c0519;#431407;#172554;#3a2a00;#4c1d95;#1a2e05;#2e1a0b;#451a03;#0b3d3b;#052e16;#3d0024;#042f2e;#083344;#2e1065;#022c22;#0d419d;#1e1b4b;#2e1065;#7c2d12;#33001f;#380005;#331800;#5c4400;#450a0a;#082f49;#0e4429;#4a044e;#67060c;#2e0000;#3e2723;#4a044e;#422006;#220033;#1a2600;#052e16;#082f49;#5e1035" /><animate attributeName="width" begin="2.5500000000000003s" dur="2s" repeatCount="indefinite" values="10;4;10" /><animate attributeName="height" begin="2.5500000000000003s" dur="2s" repeatCount="indefinite" values="10;4;10" /><animate attributeName="x" begin="2.5500000000000003s" dur="2s" repeatCount="indefinite" values="647;650.0;647" /><animate attributeName="y" begin="2.5500000000000003s" dur="2s" repeatCount="indefinite" values="36;39.0;36" /></rect><rect fill="#9f1239" height="10" rx="2" ry="2" width="10" x="647" y="49"><animate attributeName="fill" begin="0s" dur="148s" repeatCount="indefinite" values="#9f1239;#9a3412;#1e40af;#7a5c00;#6d28d9;#4d7c0f;#5c3a21;#92400e;#0f766e;#15803d;#8b0a50;#0f766e;#0369a1;#6d28d9;#047857;#1f6feb;#3730a3;#5b21b6;#b45309;#7a0c52;#8c131a;#804000;#9e6a03;#991b1b;#0369a1;#006d32;#701a75;#a40e26;#5c0000;#5d4037;#a21caf;#854d0e;#5e008a;#4d6600;#166534;#0369a1;#9e1c63" /><animate attributeName="width" begin="2.6s" dur="2s" repeatCount="indefinite" values="10;4;10" /><animate attributeName="height" begin="2.6s" dur="2s" repeatCount="indefinite" values="10;4;10" /><animate attributeName="x" begin="2.6s" dur="2s" repeatCount="indefinite" values="647;650.0;647" /><animate attributeName="y" begin="2.6s" dur="2s" repeatCount="indefinite" values="49;52.0;49" /></rect><rect fill="#161b22" height="10" rx="2" ry="2" width="10" x="647" y="62" /><rect fill="#161b22" height="10" rx="2" ry="2" width="10" x="647" y="75" /><rect fill="#161b22" height="10" rx="2" ry="2" width="10" x="647" y="88" /><rect fill="#4c0519" height="10" rx="2" ry="2" width="10" x="660" y="10"><animate attributeName="fill" begin="0s" dur="148s" repeatCount="indefinite" values="#4c0519;#431407;#172554;#3a2a00;#4c1d95;#1a2e05;#2e1a0b;#451a03;#0b3d3b;#052e16;#3d0024;#042f2e;#083344;#2e1065;#022c22;#0d419d;#1e1b4b;#2e1065;#7c2d12;#33001f;#380005;#331800;#5c4400;#450a0a;#082f49;#0e4429;#4a044e;#67060c;#2e0000;#3e2723;#4a044e;#422006;#220033;#1a2600;#052e16;#082f49;#5e1035" /><animate attributeName="width" begin="2.5s" dur="2s" repeatCount="indefinite" values="10;4;10" /><animate attributeName="height" begin="2.5s" dur="2s" repeatCount="indefinite" values="10;4;10" /><animate attributeName="x" begin="2.5s" dur="2s" repeatCount="indefinite" values="660;663.0;660" /><animate attributeName="y" begin="2.5s" dur="2s" repeatCount="indefinite" values="10;13.0;10" /></rect><rect fill="#9f1239" height="10" rx="2" ry="2" width="10" x="660" y="23"><animate attributeName="fill" begin="0s" dur="148s" repeatCount="indefinite" values="#9f1239;#9a3412;#1e40af;#7a5c00;#6d28d9;#4d7c0f;#5c3a21;#92400e;#0f766e;#15803d;#8b0a50;#0f766e;#0369a1;#6d28d9;#047857;#1f6feb;#3730a3;#5b21b6;#b45309;#7a0c52;#8c131a;#804000;#9e6a03;#991b1b;#0369a1;#006d32;#701a75;#a40e26;#5c0000;#5d4037;#a21caf;#854d0e;#5e008a;#4d6600;#166534;#0369a1;#9e1c63" /><animate attributeName="width" begin="2.5500000000000003s" dur="2s" repeatCount="indefinite" values="10;4;10" /><animate attributeName="height" begin="2.5500000000000003s" dur="2s" repeatCount="indefinite" values="10;4;10" /><animate attributeName="x" begin="2.5500000000000003s" dur="2s" repeatCount="indefinite" values="660;663.0;660" /><animate attributeName="y" begin="2.5500000000000003s" dur="2s" repeatCount="indefinite" values="23;26.0;23" /></rect><rect fill="#161b22" height="10" rx="2" ry="2" width="10" x="660" y="36" /><rect fill="#4c0519" height="10" rx="2" ry="2" width="10" x="660" y="49"><animate attributeName="fill" begin="0s" dur="148s" repeatCount="indefinite" values="#4c0519;#431407;#172554;#3a2a00;#4c1d95;#1a2e05;#2e1a0b;#451a03;#0b3d3b;#052e16;#3d0024;#042f2e;#083344;#2e1065;#022c22;#0d419d;#1e1b4b;#2e1065;#7c2d12;#33001f;#380005;#331800;#5c4400;#450a0a;#082f49;#0e4429;#4a044e;#67060c;#2e0000;#3e2723;#4a044e;#422006;#220033;#1a2600;#052e16;#082f49;#5e1035" /><animate attributeName="width" begin="2.6500000000000004s" dur="2s" repeatCount="indefinite" values="10;4;10" /><animate attributeName="height" begin="2.6500000000000004s" dur="2s" repeatCount="indefinite" values="10;4;10" /><animate attributeName="x" begin="2.6500000000000004s" dur="2s" repeatCount="indefinite" values="660;663.0;660" /><animate attributeName="y" begin="2.6500000000000004s" dur="2s" repeatCount="indefinite" values="49;52.0;49" /></rect><rect fill="#161b22" height="10" rx="2" ry="2" width="10" x="660" y="62" /><rect fill="#161b22" height="10" rx="2" ry="2" width="10" x="660" y="75" /><rect fill="#9f1239" height="10" rx="2" ry="2" width="10" x="660" y="88"><animate attributeName="fill" begin="0s" dur="148s" repeatCount="indefinite" values="#9f1239;#9a3412;#1e40af;#7a5c00;#6d28d9;#4d7c0f;#5c3a21;#92400e;#0f766e;#15803d;#8b0a50;#0f766e;#0369a1;#6d28d9;#047857;#1f6feb;#3730a3;#5b21b6;#b45309;#7a0c52;#8c131a;#804000;#9e6a03;#991b1b;#0369a1;#006d32;#701a75;#a40e26;#5c0000;#5d4037;#a21caf;#854d0e;#5e008a;#4d6600;#166534;#0369a1;#9e1c63" /><animate attributeName="width" begin="2.8000000000000003s" dur="2s" repeatCount="indefinite" values="10;4;10" /><animate attributeName="height" begin="2.8000000000000003s" dur="2s" repeatCount="indefinite" values="10;4;10" /><animate attributeName="x" begin="2.8000000000000003s" dur="2s" repeatCount="indefinite" values="660;663.0;660" /><animate attributeName="y" begin="2.8000000000000003s" dur="2s" repeatCount="indefinite" values="88;91.0;88" /></rect><rect fill="#161b22" height="10" rx="2" ry="2" width="10" x="673" y="10" /><rect fill="#4c0519" height="10" rx="2" ry="2" width="10" x="673" y="23"><animate attributeName="fill" begin="0s" dur="148s" repeatCount="indefinite" values="#4c0519;#431407;#172554;#3a2a00;#4c1d95;#1a2e05;#2e1a0b;#451a03;#0b3d3b;#052e16;#3d0024;#042f2e;#083344;#2e1065;#022c22;#0d419d;#1e1b4b;#2e1065;#7c2d12;#33001f;#380005;#331800;#5c4400;#450a0a;#082f49;#0e4429;#4a044e;#67060c;#2e0000;#3e2723;#4a044e;#422006;#220033;#1a2600;#052e16;#082f49;#5e1035" /><animate attributeName="width" begin="2.6s" dur="2s" repeatCount="indefinite" values="10;4;10" /><animate attributeName="height" begin="2.6s" dur="2s" repeatCount="indefinite" values="10;4;10" /><animate attributeName="x" begin="2.6s" dur="2s" repeatCount="indefinite" values="673;676.0;673" /><animate attributeName="y" begin="2.6s" dur="2s" repeatCount="indefinite" values="23;26.0;23" /></rect><rect fill="#4c0519" height="10" rx="2" ry="2" width="10" x="673" y="36"><animate attributeName="fill" begin="0s" dur="148s" repeatCount="indefinite" values="#4c0519;#431407;#172554;#3a2a00;#4c1d95;#1a2e05;#2e1a0b;#451a03;#0b3d3b;#052e16;#3d0024;#042f2e;#083344;#2e1065;#022c22;#0d419d;#1e1b4b;#2e1065;#7c2d12;#33001f;#380005;#331800;#5c4400;#450a0a;#082f49;#0e4429;#4a044e;#67060c;#2e0000;#3e2723;#4a044e;#422006;#220033;#1a2600;#052e16;#082f49;#5e1035" /><animate attributeName="width" begin="2.6500000000000004s" dur="2s" repeatCount="indefinite" values="10;4;10" /><animate attributeName="height" begin="2.6500000000000004s" dur="2s" repeatCount="indefinite" values="10;4;10" /><animate attributeName="x" begin="2.6500000000000004s" dur="2s" repeatCount="indefinite" values="673;676.0;673" /><animate attributeName="y" begin="2.6500000000000004s" dur="2s" repeatCount="indefinite" values="36;39.0;36" /></rect><rect fill="#161b22" height="10" rx="2" ry="2" width="10" x="673" y="49" /><rect fill="#161b22" height="10" rx="2" ry="2" width="10" x="673" y="62" /><rect fill="#161b22" height="10" rx="2" ry="2" width="10" x="673" y="75" /><rect fill="#161b22" height="10" rx="2" ry="2" width="10" x="673" y="88" /><rect fill="#161b22" height="10" rx="2" ry="2" width="10" x="686" y="10" /><rect fill="#161b22" height="10" rx="2" ry="2" width="10" x="686" y="23" /><rect fill="#161b22" height="10" rx="2" ry="2" width="10" x="686" y="36" /></svg>